<svg version="1.1" x="0px" y="0px" width="1028" height="605" xmlns="http://www.w3.org/2000/svg" xmlns:xlink="http://www.w3.org/1999/xlink" xmlns:a="http://ns.adobe.com/AdobeSVGViewerExtensions/3.0/" xml:space="preserve"><g transform="translate(20 19.999084472656) scale(2.42392861596 2.42392861596) rotate(0 33.714500427246 34.035625457764)"><path d="M34.843,42.051c1.79,0.195,3.399-1.096,3.595-2.886c0.196-1.79-1.096-3.399-2.886-3.595
	c-1.789-0.196-3.398,1.096-3.595,2.885C31.762,40.246,33.054,41.856,34.843,42.051z M38.109,47.013
	c-1.525-0.167-2.896,0.935-3.063,2.46c-0.167,1.524,0.934,2.896,2.459,3.063c1.525,0.168,2.896-0.934,3.063-2.459
	S39.635,47.18,38.109,47.013z M37.287,57.095c-1.118-0.123-2.124,0.685-2.246,1.803s0.685,2.123,1.803,2.245
	c1.118,0.123,2.124-0.685,2.246-1.803C39.212,58.223,38.405,57.217,37.287,57.095z M34.068,64.885
	c-0.877-0.097-1.666,0.537-1.763,1.414c-0.096,0.878,0.538,1.667,1.415,1.763s1.666-0.537,1.762-1.415
	C35.579,65.77,34.945,64.981,34.068,64.885z M35.178,29.143c0.196-1.79-1.096-3.399-2.886-3.595
	c-1.789-0.196-3.398,1.096-3.595,2.885c-0.195,1.79,1.097,3.399,2.886,3.595C33.373,32.225,34.982,30.933,35.178,29.143z
	 M32.385,17.935c0.167-1.525-0.935-2.897-2.46-3.064c-1.524-0.167-2.896,0.935-3.063,2.459c-0.167,1.525,0.935,2.897,2.459,3.064
	C30.846,20.561,32.218,19.46,32.385,17.935z M30.706,10.436c1.118,0.122,2.124-0.685,2.246-1.803
	c0.123-1.118-0.685-2.124-1.803-2.246c-1.118-0.123-2.123,0.685-2.246,1.803C28.781,9.308,29.589,10.313,30.706,10.436z
	 M33.361,3.187c0.878,0.096,1.667-0.538,1.763-1.415c0.096-0.877-0.537-1.666-1.414-1.762c-0.878-0.096-1.667,0.537-1.763,1.415
	C31.852,2.301,32.484,3.09,33.361,3.187z" fill="#767676"></path><path d="M41.547,1.261c-1.164-0.277-2.351-0.493-3.559-0.646l0.014,0.042L37.98,0.617
	c-2.078,4.452-3.188,9.109-3.303,14.022c-0.027,1.189-0.001,2.379,0.08,3.565c0.185,2.729,0.671,5.717,1.627,8.903
	c0.956,3.187,2.382,6.573,4.473,10.11c0.037,0.063,0.25,0.466,0.313,0.588c-2.248-5.637-3.116-10.732-3.233-15.209
	c-0.153-5.957,1.046-10.841,2.263-14.2c0.116-0.318,0.474-1.198,0.669-1.679C53.021,9.889,62,20.907,62,34.052
	c0,13.316-9.203,24.475-21.595,27.482c-0.477,1.699-1.009,3.193-1.525,4.457c-0.212,0.52-0.423,1-0.641,1.465
	c16.479-2.212,29.19-16.318,29.19-33.404C67.43,18.129,56.389,4.794,41.547,1.261z" fill="#b7b5ff"></path><path d="M32.674,49.868c-0.185-2.729-0.671-5.717-1.627-8.902c-0.956-3.187-2.382-6.574-4.473-10.11
	c-0.037-0.064-0.25-0.466-0.313-0.588c2.248,5.637,3.116,10.731,3.233,15.208c0.153,5.956-1.046,10.842-2.263,14.2
	c-0.115,0.318-0.474,1.197-0.669,1.679C14.411,58.183,5.43,47.165,5.43,34.02c0-13.315,9.204-24.475,21.595-27.482
	c0.477-1.699,1.009-3.194,1.525-4.458c0.217-0.529,0.43-1.016,0.636-1.464C12.709,2.831,0,16.937,0,34.02
	C0,49.942,11.041,63.278,25.883,66.81c1.164,0.277,2.352,0.492,3.559,0.646l-0.016-0.049l0.025,0.049
	C32.049,61.893,33.091,55.998,32.674,49.868z" fill="#6144a3"></path></g>
<g transform="translate(196.3125 145.49908447266)  scale(1 1)"><text dominant-baseline="auto" alignment-baseline="auto" font-family="Butler" font-size="34px" fill="#b7b5ff" letter-spacing="0" xml:space="preserve">MOBILE CHIROPRACTIC</text></g>
<g transform="translate(245.75 99.670959472656)  scale(1 1)"><text dominant-baseline="auto" alignment-baseline="auto" font-family="Butler" font-size="62px" fill="#6144a3" letter-spacing="0" xml:space="preserve">BACK 2 U</text></g>
</svg>